<svg xmlns="http://www.w3.org/2000/svg" width="407.779" height="32.25" viewBox="0 0 407.779 32.25">
  <defs>
    <style>
      .cls-1 {
        fill: #fff;
        fill-rule: evenodd;
      }
    </style>
  </defs>
  <path id="_-e-지금_바로_수업_신청하러_가기_go" data-name="-e-지금 바로 수업 신청하러 가기        go" class="cls-1" d="M792.545,615.451a19.519,19.519,0,0,0,5.53,1.68c0.525-1.19,3.85-12.844,5.739-19.668,1.785,6.719,4.97,18.163,5.46,19.283A20.9,20.9,0,0,0,814.8,615.1c-0.245-1.365-3.989-14.034-5.949-20.438,2.38,0,4.234-.035,4.864-0.07a27.692,27.692,0,0,0,0-5.389c-1.784-.28-18.233-0.28-20.263,0a27.723,27.723,0,0,0,0,5.389c0.56,0.035,2.625.07,5.25,0.07C796.605,601.242,792.72,614.156,792.545,615.451Zm23.658,2.52a23.009,23.009,0,0,0,5.81,0c0.244-1.715.244-27.892,0-29.642a26.869,26.869,0,0,0-5.81,0C815.993,590.079,815.993,616.256,816.2,617.971Zm7.762-13.544c1.784,0.07,17.883.07,20.053,0a35.509,35.509,0,0,0,0-5.459c-2.17-.1-18.269-0.1-20.053,0A28.445,28.445,0,0,0,823.965,604.427Zm0.735,14.244c1.574,0.21,16.973.21,18.548,0,0.21-2,.21-10.674,0-12.634-1.435-.21-17.114-0.21-18.548,0C824.49,608,824.49,616.676,824.7,618.671Zm0.385-24.533c1.574,0.105,10.184.105,11.758,0-0.035,1.015,0,2.87,0,3.535a56.9,56.9,0,0,0,5.985,0c0.14-.77.14-7.419,0-8.854-1.54-.28-15.959-0.28-17.743,0A33.713,33.713,0,0,0,825.085,594.138Zm5.564,16.833c0.945-.035,5.529-0.035,6.649,0v2.765c-1.12.07-5.564,0.07-6.649,0v-2.765Zm20.02,5.985c2,0.21,15.434.175,17.114,0,0.175-2.275.175-24.813,0-27.962a31.818,31.818,0,0,0-5.775,0c-0.035,1.155-.035,3.989-0.035,7.279-1.54,0-3.849,0-5.459.035,0-3.29,0-6.159-.035-7.314a32.2,32.2,0,0,0-5.81,0C850.494,592.178,850.459,614.051,850.669,616.956Zm19.738,1.015a23.009,23.009,0,0,0,5.81,0c0.105-.77.175-6.475,0.175-12.669,1.295,0,2.554-.035,3.184-0.105a28.812,28.812,0,0,0,0-5.494c-0.63-.07-1.889-0.14-3.184-0.14,0-5.6-.07-10.5-0.175-11.234a26.869,26.869,0,0,0-5.81,0C870.2,590.079,870.2,616.256,870.407,617.971Zm-13.928-6.335c0-.455.035-5,0.035-9.939h5.459c0,4.935.035,9.484,0.035,9.939C861.238,611.706,857.249,611.706,856.479,611.636Zm23.338,6.265c1.435,0.14,18.164.14,19.913,0a19.02,19.02,0,0,0,0-5.46c-0.665-.07-3.569-0.105-6.929-0.105v-3.6c2.975-.035,5.529-0.07,6.439-0.14a23.926,23.926,0,0,0,0-5.25c-1.539-.07-11.059-0.07-12.6,0v-2.065c2.029,0.035,10.534.035,12.038,0,0.175-1.714.175-10.778,0-12.458-1.5-.175-16.763-0.175-18.268,0a23.427,23.427,0,0,0,0,5.424c1.645,0.035,11.129.035,12.424,0v1.925c-1.365-.07-10.639-0.07-12.249,0-0.175,1.295-.175,10.779,0,12.424,0.875,0.07,3.29.105,6.125,0.105v3.639c-3.43,0-6.335.035-6.895,0.105A20.371,20.371,0,0,0,879.817,617.9Zm25.97-8.294c0.595,0.07,4.2.105,8.329,0.105-0.035,2.974,0,7.209.105,8.434a27.149,27.149,0,0,0,5.845,0c0.105-1.225.14-5.46,0.105-8.434,4.094,0,7.629-.035,8.329-0.105a18.061,18.061,0,0,0,0-5.32c-1.75-.14-21.278-0.175-22.713,0A19.345,19.345,0,0,0,905.787,609.607Zm0.14-9.694a16.771,16.771,0,0,0,4.83,3.429c1.259-1.4,5-6.824,6.4-8.959,1.4,2.135,5.144,7.559,6.4,8.959a16.87,16.87,0,0,0,4.83-3.464c-2.345-3.29-6.23-8.715-8.469-11.409a36.458,36.458,0,0,0-5.53,0C912.156,591.163,908.237,596.588,905.927,599.913Zm22.974-4.13c0,4.62,3.745,7.594,9.449,7.594,4.375,0,7.629-1.75,8.889-4.689,1.085,0.035,2.31.035,3.395,0,0,2.064.035,3.744,0.105,4.339a39.66,39.66,0,0,0,5.774,0c0.245-1.75.245-12.948,0-14.7a26.538,26.538,0,0,0-5.774,0c-0.07.665-.105,2.659-0.14,4.969-0.98-.035-2.17-0.035-3.22,0-1.12-3.184-4.445-5.109-9.029-5.109C932.646,588.189,928.9,591.163,928.9,595.783Zm1.5,22.538c2,0.21,24.427.175,26.107,0,0.175-2.275.14-12.179,0-13.929a39.249,39.249,0,0,0-5.739,0l-0.035,2.38c-3.29-.07-11.094-0.035-14.489,0,0-.945,0-1.82-0.035-2.38a40.2,40.2,0,0,0-5.809,0C930.266,606.177,930.2,615.416,930.406,618.321Zm4.2-22.538c0-1.47,1.365-2.59,3.745-2.59s3.745,1.12,3.745,2.59-1.365,2.59-3.745,2.59S934.605,597.253,934.605,595.783Zm1.645,15.468c3.36,0.035,11.2.035,14.489,0l0.035,2.17c-0.77.07-13.789,0.07-14.559,0Zm26.286-6.824A21.176,21.176,0,0,0,968,606.6c0.49-.945,2.555-6.159,4.165-10.009,1.855,3.78,4.129,8.994,4.724,9.9a20.353,20.353,0,0,0,5.32-2.415c-0.525-1.645-6.474-13.788-7.349-15.293-1.155-.07-4.585-0.07-5.74,0C968.31,590.324,962.956,602.782,962.536,604.427Zm2.24,13.509c2.519,0.14,22.327.14,24.707,0a24.043,24.043,0,0,0,0-5.5c-1.54-.07-17.148-0.07-18.758,0,0.07-.945.035-3.639,0-4.794a28.166,28.166,0,0,0-5.949,0C964.6,609.747,964.636,615.556,964.776,617.936Zm18.548-7.874a40.143,40.143,0,0,0,5.809,0c0.245-1.75.245-19.983,0-21.733a26.86,26.86,0,0,0-5.809,0C983.184,590.079,983.184,608.347,983.324,610.062Zm7.152-6.51a16.08,16.08,0,0,0,4.83,2.765,80.655,80.655,0,0,0,4.479-8.644,72.1,72.1,0,0,0,3.985,7.629,17.374,17.374,0,0,0,4.87-2.7c-0.39-1.015-2.03-4.234-3.43-6.859,1.4-.035,2.45-0.035,2.94-0.07a25.989,25.989,0,0,0,0-5.144c-0.63-.07-2.73-0.14-5.25-0.14,0-1.12-.04-2.31-0.11-3.08a35.724,35.724,0,0,0-6.119,0c-0.07.77-.105,1.96-0.105,3.08-2.59,0-4.8.07-5.53,0.14a25.266,25.266,0,0,0,0,5.144c0.455,0.035,1.715.07,3.36,0.07C992.856,598.653,990.9,602.5,990.476,603.552Zm1.225,9.029c0,4.1,3.465,6.335,13.609,6.335s13.62-2.24,13.62-6.335-3.47-6.334-13.62-6.334S991.7,608.487,991.7,612.581Zm6.089,0c0-.91,1.05-1.435,7.52-1.435s7.53,0.525,7.53,1.435-1.05,1.435-7.53,1.435S997.79,613.491,997.79,612.581Zm11.3-11.934c1.05,0.035,2.24.07,3.43,0.07,0,2.45.04,4.41,0.11,5a39.6,39.6,0,0,0,5.77,0c0.25-1.75.25-15.643,0-17.393a26.5,26.5,0,0,0-5.77,0c-0.07.735-.11,3.744-0.14,7.034-1.19-.035-2.38,0-3.4.07A29.243,29.243,0,0,0,1009.09,600.647Zm10.88-4.9c2.07,0.1,19.28.1,21.56,0a22.211,22.211,0,0,0,0-5.284c-0.84-.07-3.82-0.07-7.28-0.105,0-.91-0.04-1.89-0.11-2.8a36.557,36.557,0,0,0-6.19,0c-0.07.91-.11,1.89-0.11,2.8-3.74,0-7.03.035-7.87,0.105A19.479,19.479,0,0,0,1019.97,595.748Zm0.39,11.269c0,6.474,4.06,10.324,10.7,10.324s10.71-3.85,10.71-10.324-4.06-10.324-10.71-10.324S1020.36,600.542,1020.36,607.017Zm5.66,0c0-3.29,1.93-5.32,5.04-5.32s5.04,2.03,5.04,5.32c0,3.325-1.92,5.319-5.04,5.319S1026.02,610.342,1026.02,607.017Zm17.05,10.954a23.011,23.011,0,0,0,5.81,0c0.1-.77.17-6.475,0.17-12.669,1.23,0,2.42-.035,3.01-0.105a28.016,28.016,0,0,0,0-5.494,29.628,29.628,0,0,0-3.01-.14c0-5.6-.07-10.5-0.17-11.234a26.869,26.869,0,0,0-5.81,0C1042.86,590.079,1042.86,616.256,1043.07,617.971Zm9.72-23.413c1.65,0.07,5.81.07,7.46,0a41.2,41.2,0,0,1,0,4.97c-1.65-.105-5.6-0.105-7.18,0-0.21,1.924-.21,15.4,0,17.323,2.38,0.175,12.5.175,14.91,0a28.383,28.383,0,0,0,0-5.53c-1.54-.105-7.31-0.105-8.89,0-0.07-1.224-.07-5.214,0-6.4,2,0.105,5.57.105,7.11,0,0.14-1.925.14-13.964,0-15.888-1.54-.105-11.87-0.105-13.41,0A30.028,30.028,0,0,0,1052.79,594.558Zm14.91,9.134c0.74,0.07,2.35.105,3.89,0.105,0,6.754.03,13.334,0.14,14.174a23.011,23.011,0,0,0,5.81,0c0.24-1.715.24-27.892,0-29.642a26.869,26.869,0,0,0-5.81,0c-0.07.665-.14,4.864-0.14,9.869a37.278,37.278,0,0,0-3.89.14A22.829,22.829,0,0,0,1067.7,603.692Zm16.42-8.854c1.61,0.105,3.43.07,5.42,0-0.07,1.715-.07,20.368,0,22.013a32.658,32.658,0,0,0,5.85,0c0.17-1.785.17-25.583,0-27.717-1.75-.175-9.52-0.175-11.27,0A30.193,30.193,0,0,0,1084.12,594.838Zm13.58,23.133a23.011,23.011,0,0,0,5.81,0c0.1-.77.17-6.475,0.17-12.669,1.23,0,2.42-.035,3.01-0.105a28.016,28.016,0,0,0,0-5.494,29.628,29.628,0,0,0-3.01-.14c0-5.6-.07-10.5-0.17-11.234a26.869,26.869,0,0,0-5.81,0C1097.49,590.079,1097.49,616.256,1097.7,617.971Zm7.91-23.133c1.61,0.105,4.51.07,6.51,0-0.07,1.715-.07,20.368,0,22.013a33.33,33.33,0,0,0,5.91,0c0.18-1.785.18-25.583,0-27.717-1.75-.175-10.67-0.175-12.42,0A30.193,30.193,0,0,0,1105.61,594.838Zm14.98,23.133a23.011,23.011,0,0,0,5.81,0c0.24-1.715.24-27.892,0-29.642a26.869,26.869,0,0,0-5.81,0C1120.38,590.079,1120.38,616.256,1120.59,617.971Zm47.5-4.941c0,3.779,2.82,6.418,7.35,6.418s7.35-2.639,7.35-6.418a5.983,5.983,0,0,0-4.8-6.028l-0.03-.87a5.656,5.656,0,0,0,0-10.947,27.354,27.354,0,0,0-.06-3.119,23.03,23.03,0,0,0-4.98,0,21.71,21.71,0,0,0-.06,3.119,5.683,5.683,0,0,0-.03,10.947v0.9A5.951,5.951,0,0,0,1168.09,613.03Zm4.95,0a2.413,2.413,0,1,1,2.4,2.159A2.128,2.128,0,0,1,1173.04,613.03Zm0.36-12.356a2.066,2.066,0,0,1,4.08,0A2.061,2.061,0,0,1,1173.4,600.674Zm9.4,2.789c0,5.728,3.96,8.547,8.76,8.547,4.76,0,8.75-2.819,8.75-8.547s-3.99-8.548-8.75-8.548C1186.76,594.915,1182.8,597.735,1182.8,603.463Zm5.16,0c0-2.639,1.56-3.959,3.6-3.959s3.56,1.32,3.56,3.959-1.53,3.959-3.56,3.959S1187.96,606.1,1187.96,603.463Z" transform="translate(-792.531 -587.188)"/>
</svg>
